<mxfile host="app.diagrams.net" modified="2023-10-06T16:59:49.664Z" agent="Mozilla/5.0 (Windows NT 10.0; Win64; x64; rv:109.0) Gecko/20100101 Firefox/118.0" etag="It_QFg2CTr_nUPKOuByh" version="22.0.3" type="device">
  <diagram name="Seite-1" id="Buf-V82mNLHq6IPBUSCK">
    <mxGraphModel dx="1050" dy="566" grid="1" gridSize="10" guides="1" tooltips="1" connect="1" arrows="1" fold="1" page="1" pageScale="1" pageWidth="827" pageHeight="1169" math="0" shadow="0">
      <root>
        <mxCell id="0" />
        <mxCell id="1" parent="0" />
        <mxCell id="byU7zfiMpBw82D8CF0K_-2" value="" style="ellipse;whiteSpace=wrap;html=1;strokeColor=none;fillColor=#006666;opacity=20;enumerate=0;comic=0;treeFolding=0;treeMoving=0;backgroundOutline=0;fixDash=0;sketch=1;curveFitting=1;jiggle=2;" vertex="1" parent="1">
          <mxGeometry x="15" y="77" width="460" height="290" as="geometry" />
        </mxCell>
        <mxCell id="10NsXPcwAe8AEz9bs2Zb-1" value="UML-Diagramme" style="rounded=0;whiteSpace=wrap;html=1;shadow=1;" parent="1" vertex="1">
          <mxGeometry x="280" y="20" width="160" height="40" as="geometry" />
        </mxCell>
        <mxCell id="10NsXPcwAe8AEz9bs2Zb-2" value="Verhaltensdiagramme" style="rounded=0;whiteSpace=wrap;html=1;shadow=1;" parent="1" vertex="1">
          <mxGeometry x="450" y="110" width="160" height="40" as="geometry" />
        </mxCell>
        <mxCell id="10NsXPcwAe8AEz9bs2Zb-3" value="Strukturdiagramme" style="rounded=0;whiteSpace=wrap;html=1;shadow=1;" parent="1" vertex="1">
          <mxGeometry x="120" y="120" width="160" height="40" as="geometry" />
        </mxCell>
        <mxCell id="10NsXPcwAe8AEz9bs2Zb-5" value="Objektdiagramm" style="rounded=0;whiteSpace=wrap;html=1;shadow=1;" parent="1" vertex="1">
          <mxGeometry x="110" y="215" width="160" height="40" as="geometry" />
        </mxCell>
        <mxCell id="10NsXPcwAe8AEz9bs2Zb-6" value="Klassendiagramm" style="rounded=0;whiteSpace=wrap;html=1;shadow=1;" parent="1" vertex="1">
          <mxGeometry x="300" y="180" width="160" height="40" as="geometry" />
        </mxCell>
        <mxCell id="10NsXPcwAe8AEz9bs2Zb-7" value="..." style="rounded=0;whiteSpace=wrap;html=1;shadow=1;" parent="1" vertex="1">
          <mxGeometry x="30" y="190" width="50" height="35" as="geometry" />
        </mxCell>
        <mxCell id="10NsXPcwAe8AEz9bs2Zb-12" value="..." style="rounded=0;whiteSpace=wrap;html=1;strokeColor=none;fillColor=none;" parent="1" vertex="1">
          <mxGeometry x="550" y="185" width="60" height="30" as="geometry" />
        </mxCell>
        <mxCell id="10NsXPcwAe8AEz9bs2Zb-13" value="" style="endArrow=none;html=1;rounded=0;entryX=0.25;entryY=1;entryDx=0;entryDy=0;exitX=0.75;exitY=0;exitDx=0;exitDy=0;" parent="1" source="10NsXPcwAe8AEz9bs2Zb-3" target="10NsXPcwAe8AEz9bs2Zb-1" edge="1">
          <mxGeometry width="50" height="50" relative="1" as="geometry">
            <mxPoint x="350" y="150" as="sourcePoint" />
            <mxPoint x="400" y="100" as="targetPoint" />
          </mxGeometry>
        </mxCell>
        <mxCell id="10NsXPcwAe8AEz9bs2Zb-14" value="" style="endArrow=none;html=1;rounded=0;entryX=0.75;entryY=1;entryDx=0;entryDy=0;exitX=0.25;exitY=0;exitDx=0;exitDy=0;" parent="1" source="10NsXPcwAe8AEz9bs2Zb-2" target="10NsXPcwAe8AEz9bs2Zb-1" edge="1">
          <mxGeometry width="50" height="50" relative="1" as="geometry">
            <mxPoint x="390" y="320" as="sourcePoint" />
            <mxPoint x="440" y="270" as="targetPoint" />
          </mxGeometry>
        </mxCell>
        <mxCell id="10NsXPcwAe8AEz9bs2Zb-15" value="" style="endArrow=none;html=1;rounded=0;exitX=0.5;exitY=0;exitDx=0;exitDy=0;entryX=0.25;entryY=1;entryDx=0;entryDy=0;" parent="1" source="10NsXPcwAe8AEz9bs2Zb-7" target="10NsXPcwAe8AEz9bs2Zb-3" edge="1">
          <mxGeometry width="50" height="50" relative="1" as="geometry">
            <mxPoint x="390" y="320" as="sourcePoint" />
            <mxPoint x="190" y="190" as="targetPoint" />
          </mxGeometry>
        </mxCell>
        <mxCell id="10NsXPcwAe8AEz9bs2Zb-16" value="" style="endArrow=none;html=1;rounded=0;entryX=0.5;entryY=1;entryDx=0;entryDy=0;exitX=0.5;exitY=0;exitDx=0;exitDy=0;" parent="1" source="10NsXPcwAe8AEz9bs2Zb-5" target="10NsXPcwAe8AEz9bs2Zb-3" edge="1">
          <mxGeometry width="50" height="50" relative="1" as="geometry">
            <mxPoint x="390" y="320" as="sourcePoint" />
            <mxPoint x="440" y="270" as="targetPoint" />
          </mxGeometry>
        </mxCell>
        <mxCell id="10NsXPcwAe8AEz9bs2Zb-17" value="" style="endArrow=none;html=1;rounded=0;entryX=0.75;entryY=1;entryDx=0;entryDy=0;exitX=0.5;exitY=0;exitDx=0;exitDy=0;" parent="1" source="10NsXPcwAe8AEz9bs2Zb-6" target="10NsXPcwAe8AEz9bs2Zb-3" edge="1">
          <mxGeometry width="50" height="50" relative="1" as="geometry">
            <mxPoint x="390" y="320" as="sourcePoint" />
            <mxPoint x="440" y="270" as="targetPoint" />
          </mxGeometry>
        </mxCell>
        <mxCell id="10NsXPcwAe8AEz9bs2Zb-19" value="" style="endArrow=none;html=1;rounded=0;entryX=0.5;entryY=1;entryDx=0;entryDy=0;exitX=0.25;exitY=0;exitDx=0;exitDy=0;" parent="1" source="10NsXPcwAe8AEz9bs2Zb-12" target="10NsXPcwAe8AEz9bs2Zb-2" edge="1">
          <mxGeometry width="50" height="50" relative="1" as="geometry">
            <mxPoint x="390" y="320" as="sourcePoint" />
            <mxPoint x="440" y="270" as="targetPoint" />
          </mxGeometry>
        </mxCell>
        <mxCell id="D09WNDjQyAPJMhM3ksgI-1" value="" style="endArrow=none;html=1;rounded=0;entryX=0.25;entryY=1;entryDx=0;entryDy=0;exitX=0.625;exitY=0.2;exitDx=0;exitDy=0;exitPerimeter=0;" parent="1" edge="1">
          <mxGeometry width="50" height="50" relative="1" as="geometry">
            <mxPoint x="120" y="314" as="sourcePoint" />
            <mxPoint x="150" y="255" as="targetPoint" />
          </mxGeometry>
        </mxCell>
        <mxCell id="D09WNDjQyAPJMhM3ksgI-2" value="" style="endArrow=none;html=1;rounded=0;entryX=0.75;entryY=1;entryDx=0;entryDy=0;" parent="1" edge="1">
          <mxGeometry width="50" height="50" relative="1" as="geometry">
            <mxPoint x="238" y="300" as="sourcePoint" />
            <mxPoint x="230" y="255" as="targetPoint" />
          </mxGeometry>
        </mxCell>
        <mxCell id="D09WNDjQyAPJMhM3ksgI-3" value="..." style="rounded=0;whiteSpace=wrap;html=1;strokeColor=none;fillColor=none;" parent="1" vertex="1">
          <mxGeometry x="85" y="308" width="60" height="30" as="geometry" />
        </mxCell>
        <mxCell id="D09WNDjQyAPJMhM3ksgI-4" value="..." style="rounded=0;whiteSpace=wrap;html=1;strokeColor=none;fillColor=none;" parent="1" vertex="1">
          <mxGeometry x="210" y="295" width="60" height="30" as="geometry" />
        </mxCell>
        <mxCell id="D09WNDjQyAPJMhM3ksgI-5" value="..." style="rounded=0;whiteSpace=wrap;html=1;strokeColor=none;fillColor=none;" parent="1" vertex="1">
          <mxGeometry x="370" y="280" width="60" height="30" as="geometry" />
        </mxCell>
        <mxCell id="D09WNDjQyAPJMhM3ksgI-6" value="" style="endArrow=none;html=1;rounded=0;entryX=0.5;entryY=1;entryDx=0;entryDy=0;exitX=0.5;exitY=0;exitDx=0;exitDy=0;" parent="1" source="D09WNDjQyAPJMhM3ksgI-5" edge="1">
          <mxGeometry width="50" height="50" relative="1" as="geometry">
            <mxPoint x="590" y="285" as="sourcePoint" />
            <mxPoint x="380" y="220" as="targetPoint" />
          </mxGeometry>
        </mxCell>
      </root>
    </mxGraphModel>
  </diagram>
</mxfile>
